# xmcd CD database file
#
# Track frame offsets:
#	150
#	16704
#	34471
#	55396
#	71987
#	89148
#	110288
#	122328
#	138850
#	174745
#	195342
#	211356
#	234382
#	252413
#
# Disc length: 3522 seconds
#
# Revision: 1
# Processed by: cddbd v1.5.2PL0 Copyright (c) Steve Scherf et al.
# Submitted via: CDex 1.70beta2
#
DISCID=c60dc00e
DTITLE=Weber Robi - Favourite Things
DYEAR=2009
DGENRE=Jazz
TTITLE0=Moanin
TTITLE1=Black and Blue
TTITLE2=Hot Lips
TTITLE3=Chocolate Blues
TTITLE4=Cold Duck Time
TTITLE5=Misterioso
TTITLE6=Save Your Love for Me
TTITLE7=The Fat Man
TTITLE8=Mercy Mercy Mercy
TTITLE9=Sweet Georgia Brown
TTITLE10=In Your Quiet Place
TTITLE11=Why dont You do Right
TTITLE12=Basin Street Blues
TTITLE13=Topsy
EXTD=YEAR: 2009
EXTT0=
EXTT1=
EXTT2=
EXTT3=
EXTT4=
EXTT5=
EXTT6=
EXTT7=
EXTT8=
EXTT9=
EXTT10=
EXTT11=
EXTT12=
EXTT13=
PLAYORDER=
